<?xml version="1.0" standalone="no"?>
<!DOCTYPE svg PUBLIC "-//W3C//DTD SVG 20010904//EN"
 "http://www.w3.org/TR/2001/REC-SVG-20010904/DTD/svg10.dtd">
<svg version="1.0" xmlns="http://www.w3.org/2000/svg"
 width="256.000000pt" height="256.000000pt" viewBox="0 0 256.000000 256.000000"
 preserveAspectRatio="xMidYMid meet">
<metadata>
Created by potrace 1.15, written by Peter Selinger 2001-2017
</metadata>
<g transform="translate(0.000000,256.000000) scale(0.100000,-0.100000)"
fill="#000000" stroke="none">
<path d="M0 1280 l0 -1280 1280 0 1280 0 0 1280 0 1280 -1280 0 -1280 0 0
-1280z m882 1213 c41 -47 33 -112 -16 -143 -19 -11 -45 -20 -59 -20 -20 0 -26
6 -30 33 -6 41 16 96 51 124 33 28 35 28 54 6z m887 -24 c34 -25 32 -59 -9
-109 l-28 -34 -40 27 -39 28 14 42 c23 68 53 82 102 46z"/>
</g>
</svg>
